<svg xmlns="http://www.w3.org/2000/svg" width="23.275" height="24.075" viewBox="0 0 23.275 24.075">
  <g id="donation" transform="translate(-8.501)">
    <path id="Path_1753" data-name="Path 1753" d="M31.306,13.316H25.919c.047-.074.091-.15.133-.228a3.611,3.611,0,0,0-.4-3.985L23.8,5.849C22.771,3.937,21,3.763,19.279,3.594c-.246-.024-.5-.049-.751-.079A6.837,6.837,0,0,1,15.193,2.43l-.487-.266a1.182,1.182,0,0,0-.041-.52,1.169,1.169,0,0,0-.574-.7L12.573.138a1.183,1.183,0,0,0-1.6.489l-2.335,4.4a1.183,1.183,0,0,0,.489,1.6l1.518.809a1.183,1.183,0,0,0,1.6-.489l.023-.043a2.835,2.835,0,0,1,1.016.994,4.5,4.5,0,0,0,2.2,1.918,7.376,7.376,0,0,1,.724.384l3.084,1.923.069.042a3.608,3.608,0,0,0,.47,1.154H14.94a.47.47,0,0,0-.47.47v8.807a1.483,1.483,0,0,0,1.481,1.482H30.295a1.483,1.483,0,0,0,1.481-1.482V13.786a.47.47,0,0,0-.47-.47Zm-6.084-.669a2.655,2.655,0,0,1-.5.669H21.031a2.65,2.65,0,0,1-.588-.839.989.989,0,0,0,.114-.023,1.108,1.108,0,0,0,.687-.6,2.648,2.648,0,0,0-.249-2.343,2.66,2.66,0,0,1,4.227,3.132ZM20.412,8.77,18.856,7.154l-.012-.015a1.372,1.372,0,0,1,.265-.067c1.234-.206,1.589.141,2.163,1.1A3.583,3.583,0,0,0,20.412,8.77Zm-9-2.269a.245.245,0,0,1-.327.1L9.57,5.792h0a.243.243,0,0,1-.1-.326l2.336-4.4a.24.24,0,0,1,.142-.117A.252.252,0,0,1,12.02.941a.235.235,0,0,1,.111.028l1.52.81a.237.237,0,0,1,.115.141.241.241,0,0,1-.017.185Zm8.371,4.82L16.7,9.4a8.228,8.228,0,0,0-.813-.433A3.571,3.571,0,0,1,14.083,7.4a3.837,3.837,0,0,0-1.374-1.333l1.615-3.041.416.227a7.761,7.761,0,0,0,3.676,1.194c.26.031.519.057.77.081,1.674.165,3,.295,3.79,1.77l0,.009.929,1.639a3.588,3.588,0,0,0-1.731-.087C21.5,6.7,20.861,5.824,18.953,6.144c-.572.1-.927.322-1.054.671a.934.934,0,0,0,.249.958l.02.022,1.707,1.773a2.055,2.055,0,0,1,.538,1.849c-.051.1-.091.126-.1.128s-.136.019-.527-.224ZM30.295,23.134H15.951a.542.542,0,0,1-.541-.541v-5.55h2.543a.47.47,0,0,0,0-.94H15.41V14.256H30.835V16.1H22.172a.47.47,0,0,0,0,.94h8.663v5.55a.542.542,0,0,1-.541.541Z" transform="translate(0 0)" fill="#fff"/>
    <path id="Path_1754" data-name="Path 1754" d="M223.455,391.719h-8.978a.47.47,0,0,0-.47.47v2.4a.47.47,0,0,0,.47.47h8.978a.47.47,0,0,0,.47-.47v-2.4A.47.47,0,0,0,223.455,391.719Zm-.47,2.4h-8.038v-1.457h8.038Z" transform="translate(-195.843 -373.3)" fill="#fff"/>
    <path id="Path_1755" data-name="Path 1755" d="M244.865,343.394h0a.47.47,0,1,0-.473-.47A.469.469,0,0,0,244.868,343.394Z" transform="translate(-224.802 -326.352)" fill="#fff"/>
  </g>
</svg>
