<svg width="24" height="24" viewBox="0 0 24 24" fill="none" xmlns="http://www.w3.org/2000/svg">
<g clip-path="url(#clip0)">
<path d="M7.95637 3.16682L7.95646 3.16684C8.68586 3.30478 9.38917 2.825 9.52694 2.09509L7.95637 3.16682ZM7.95637 3.16682C7.22542 3.02872 6.74555 2.32574 6.88365 1.59613L6.88371 1.59583M7.95637 3.16682L6.88371 1.59583M6.88371 1.59583C7.02133 0.866296 7.72511 0.385963 8.45573 0.523617L6.88371 1.59583ZM8.45596 0.52366C9.18514 0.661653 9.66466 1.36473 9.52695 2.09504L8.45596 0.52366Z" stroke="#4F5CD3"/>
<path d="M17.9557 15.6272L17.1755 11.4975L17.2402 11.4749L17.3868 11.7297C17.4086 11.7171 17.4512 11.6928 17.5084 11.6601C17.5601 11.6306 17.6238 11.5942 17.6949 11.5535M17.9557 15.6272L20.3995 19.2515L20.4496 16.8545L20.4657 16.0854L19.7563 16.3829L17.2411 17.438L16.993 17.542L16.9432 17.8064L16.3694 20.8503L16.3693 20.8507C16.3291 21.0644 16.1419 21.2149 15.9312 21.2149C15.9052 21.2149 15.8776 21.2125 15.8482 21.2069L15.8475 21.2068C15.605 21.161 15.4456 20.9273 15.4914 20.6854L15.4914 20.685L16.1591 17.1404L16.1592 17.1403C16.187 16.9924 16.2867 16.869 16.4252 16.8111L16.4255 16.811L18.149 16.0883L18.5221 15.9318L18.447 15.5343L17.6949 11.5535M17.9557 15.6272L16.2322 16.3499L17.9557 15.6272ZM17.6949 11.5535L17.6528 11.3305M17.6949 11.5535C18.0699 11.3389 18.6517 11.0044 18.7765 10.9194L18.3298 10.0342L15.27 11.1047L15.4334 11.5773M17.6528 11.3305L19.7948 8.99926C19.5565 8.83668 19.2626 8.77528 18.9789 8.82869C18.9788 8.8287 18.9787 8.82872 18.9786 8.82873L18.3129 8.95483L18.3124 8.95492C18.2154 8.97319 18.124 9.00377 18.0393 9.04482L18.1332 9.49044L15.2591 10.4957L15.1441 10.536L15.0234 10.5187L11.7244 10.0477C11.7244 10.0477 11.7243 10.0477 11.7243 10.0477C11.5951 10.0292 11.4643 10.1072 11.4198 10.2564L11.3518 10.4845L11.5668 10.5849L11.5763 10.5893C11.5907 10.5961 11.6014 10.601 11.6123 10.606C11.6247 10.6116 11.6333 10.6151 11.6397 10.6176C11.6435 10.619 11.6461 10.6199 11.6476 10.6204L15.1325 11.1183L15.1353 11.1187C15.1723 11.1242 15.2216 11.1213 15.2694 11.1049L15.2683 11.1053L15.4334 11.5773M17.6528 11.3305L18.66 10.9782L18.4949 10.5062L18.2134 10.093C18.1041 10.1674 17.4034 10.5681 17.0545 10.7676C16.9798 10.8103 16.9213 10.8438 16.8881 10.8629L16.5802 11.04L16.6043 11.1676M17.6528 11.3305L16.6043 11.1676M15.4334 11.5773L16.6043 11.1676M15.4334 11.5773C15.3088 11.6204 15.1779 11.6306 15.0618 11.6133L16.6043 11.1676M2.80978 18.7351C2.72194 18.9663 2.83767 19.2244 3.06852 19.3124L3.06938 19.3128C3.29632 19.3998 3.55623 19.2867 3.64516 19.0539C3.64517 19.0538 3.64517 19.0538 3.64518 19.0538L5.162 15.0746C5.16208 15.0744 5.16215 15.0742 5.16223 15.074C5.19004 15 5.19828 14.9198 5.18611 14.8418C5.18607 14.8415 5.18603 14.8412 5.18598 14.841L4.99819 13.6796L4.7102 11.8985L5.87388 13.2773L7.18599 14.8319L7.30612 14.9743L7.30385 15.1605L7.25838 18.8893C7.25838 18.8894 7.25838 18.8894 7.25838 18.8894C7.25547 19.1355 7.45178 19.3373 7.69709 19.3416H7.6971H7.69712H7.69715H7.69717H7.69719H7.69721H7.69724H7.69726H7.69728H7.69731H7.69733H7.69735H7.69737H7.6974H7.69742H7.69744H7.69746H7.69749H7.69751H7.69753H7.69756H7.69758H7.6976H7.69762H7.69765H7.69767H7.69769H7.69771H7.69774H7.69776H7.69778H7.6978H7.69783H7.69785H7.69787H7.6979H7.69792H7.69794H7.69796H7.69799H7.69801H7.69803H7.69805H7.69808H7.6981H7.69812H7.69815H7.69817H7.69819H7.69821H7.69824H7.69826H7.69828H7.6983H7.69833H7.69835H7.69837H7.6984H7.69842H7.69844H7.69846H7.69849H7.69851H7.69853H7.69855H7.69858H7.6986H7.69862H7.69865H7.69867H7.69869H7.69871H7.69874H7.69876H7.69878H7.6988H7.69883H7.69885H7.69887H7.69889H7.69892H7.69894H7.69896H7.69899H7.69901H7.69903H7.69905H7.69908H7.6991H7.69912H7.69914H7.69917H7.69919H7.69921H7.69923H7.69926H7.69928H7.6993H7.69933H7.69935H7.69937H7.69939H7.69942H7.69944H7.69946H7.69948H7.69951H7.69953H7.69955H7.69958H7.6996H7.69962H7.69964H7.69967H7.69969H7.69971H7.69973H7.69976H7.69978H7.6998H7.69982H7.69985H7.69987H7.69989H7.69992H7.69994H7.69996H7.69998H7.70001H7.70003H7.70005H7.70007H7.7001H7.70012H7.70014H7.70017H7.70019H7.70021H7.70023H7.70026H7.70028H7.7003H7.70032H7.70035H7.70037H7.70039H7.70042H7.70044H7.70046H7.70048H7.70051H7.70053H7.70055H7.70057H7.7006H7.70062H7.70064H7.70066H7.70069H7.70071H7.70073H7.70076H7.70078H7.7008H7.70082H7.70085H7.70087H7.70089H7.70091H7.70094H7.70096H7.70098H7.70101H7.70103H7.70105H7.70107H7.7011H7.70112H7.70114H7.70116H7.70119H7.70121H7.70123H7.70126H7.70128H7.7013H7.70132H7.70135H7.70137H7.70139H7.70141H7.70144H7.70146H7.70148H7.70151H7.70153H7.70155H7.70157H7.7016H7.70162H7.70164H7.70166H7.70169H7.70171H7.70173H7.70176H7.70178H7.7018H7.70182H7.70185H7.70187H7.70189H7.70191H7.70194H7.70196H7.70198H7.70201H7.70203H7.70205H7.70207H7.7021H7.70212H7.70214H7.70217H7.70219H7.70221H7.70223H7.70226H7.70228H7.7023H7.70232H7.70235H7.70237H7.70239H7.70242H7.70244H7.70246H7.70248H7.70251H7.70253H7.70255H7.70257H7.7026H7.70262H7.70264H7.70267H7.70269H7.70271H7.70273H7.70276H7.70278H7.7028H7.70283H7.70285H7.70287H7.70289H7.70292H7.70294H7.70296H7.70299H7.70301H7.70303H7.70305H7.70308H7.7031H7.70312H7.70315H7.70317H7.70319H7.70321H7.70324H7.70326H7.70328H7.7033H7.70333H7.70335H7.70337H7.7034H7.70342H7.70344H7.70346H7.70349H7.70351H7.70353H7.70356H7.70358H7.7036H7.70362H7.70365H7.70367H7.70369H7.70372H7.70374H7.70376H7.70378H7.70381H7.70383H7.70385H7.70388H7.7039H7.70392H7.70394H7.70397H7.70399H7.70401H7.70404H7.70406H7.70408H7.7041H7.70413H7.70415H7.70417H7.7042H7.70422H7.70424H7.70426H7.70429H7.70431H7.70433H7.70436H7.70438H7.7044H7.70443H7.70445H7.70447H7.70449H7.70452H7.70454H7.70456H7.70459H7.70461H7.70463H7.70465H7.70468H7.7047H7.70472H7.70475H7.70477H7.70479H7.70481H7.70484H7.70486H7.70488H7.70491H7.70493H7.70495H7.70498H7.705H7.70502H7.70504H7.70507H7.70509H7.70511H7.70514H7.70516H7.70518H7.70521C7.94998 19.3416 8.14913 19.1451 8.15208 18.9002L8.15208 18.9001L8.20141 14.8196C8.20141 14.8196 8.20141 14.8195 8.20141 14.8194C8.20251 14.7116 8.16485 14.6071 8.09596 14.5255L8.0959 14.5254L6.60909 12.7635L6.45581 12.5818L6.49989 12.3483L6.92375 10.1027C6.91239 10.0924 6.89967 10.0813 6.88588 10.0693C6.77174 9.96955 6.58451 9.806 6.49071 9.50737L6.48984 9.50461L6.48985 9.50461C6.4829 9.48201 6.46611 9.42784 6.44181 9.3494C6.36009 9.08564 6.19334 8.54745 6.02926 8.0121C5.9226 7.66409 5.81632 7.31485 5.73407 7.0391C5.65751 6.78242 5.589 6.54827 5.57289 6.46425L6.50458 6.13378L7.95076 8.83045L7.95144 8.83172C7.9594 8.84667 7.97488 8.8686 8.00978 8.90194L8.02274 8.91432L8.03478 8.9276C8.03747 8.93056 8.04007 8.93349 8.04257 8.93638L10.4031 11.0814L10.4032 11.0816C10.5198 11.1876 10.7019 11.1806 10.8119 11.0612C10.8286 11.0427 10.8496 11.0082 10.8675 10.9284L10.9059 10.7575L10.6044 10.4835C10.2762 10.1851 10.1857 10.103 10.0527 9.98214C9.86795 9.81427 9.60097 9.57174 8.49991 8.571L8.43625 8.51314L8.39559 8.43733L7.00825 5.85079L7.60061 5.40201C7.45668 5.09769 7.17395 4.8641 6.81769 4.79691L6.8173 4.79684L6.15152 4.67074C6.15144 4.67072 6.15137 4.67071 6.15129 4.6707L6.15109 4.67066L6.24414 4.17939L2.80978 18.7351ZM2.80978 18.7351C2.80979 18.7351 2.8098 18.735 2.80981 18.735L4.2369 14.9921L4.28512 14.8656L4.26295 14.7321L3.79967 11.9419L3.79965 11.9418C3.7595 11.7003 3.76225 11.4535 3.80769 11.2128C3.80769 11.2128 3.80769 11.2128 3.8077 11.2128L4.87933 5.53918M2.80978 18.7351L4.87937 5.53896M4.87937 5.53896L4.8794 5.53883L4.38809 5.44603L4.87933 5.53918M4.87937 5.53896C4.87936 5.53903 4.87935 5.5391 4.87933 5.53918M4.87937 5.53896L4.87933 5.53918M20.9907 23.3072C21.1075 23.7257 21.4884 24 21.9022 24C21.9869 24 22.0723 23.9887 22.1569 23.9648C22.6608 23.8245 22.9555 23.3024 22.8152 22.7985L20.9907 23.3072ZM20.4162 19.3847C20.4044 19.3407 20.3988 19.2961 20.3995 19.2525L20.2508 9.69702L21.3417 15.4732L21.3418 15.4733C21.3788 15.6694 21.3945 15.869 21.3885 16.0685L21.8883 16.0836L21.3885 16.0685L21.2965 19.1278L21.2942 19.2038L21.3147 19.277L22.3335 22.9326C22.3998 23.1705 22.2607 23.4169 22.0228 23.4831L22.0209 23.4837C21.9816 23.4947 21.9421 23.5 21.9022 23.5C21.7069 23.5 21.5272 23.3696 21.4723 23.1728L20.4165 19.3857C20.4164 19.3853 20.4163 19.385 20.4162 19.3847ZM7.51013 9.06676C7.55081 9.14315 7.60492 9.20667 7.66442 9.2635L7.21396 9.69132C7.10028 9.58988 7.0175 9.51601 6.96773 9.35754C6.96046 9.33391 6.94325 9.27836 6.91845 9.19831C6.88631 9.0946 6.84144 8.94976 6.78891 8.77987L5.62331 6.60639L6.06395 6.37009L6.555 6.27593C6.55499 6.27588 6.55506 6.27616 6.55522 6.27678C6.55679 6.28296 6.56697 6.32314 6.59256 6.41299C6.61758 6.50083 6.65172 6.61705 6.69235 6.75327C6.77351 7.02537 6.87892 7.37176 6.98537 7.71907C7.07935 8.02574 7.17357 8.33124 7.25235 8.58608L7.51013 9.06676ZM8.47803 14.203L6.99122 12.441L8.47803 14.203ZM6.11831 14.3421L6.80388 15.1544L5.64684 14.5587L5.10968 13.9223L5.49178 13.5998L5.98537 13.52L6.11831 14.3421ZM19.7948 8.99928C20.0329 9.16177 20.1968 9.41243 20.2508 9.69676L19.7948 8.99928Z" stroke="#4F5CD3"/>
<path d="M18.2564 7.08075L18.2564 7.08074C18.9876 6.94255 19.4674 6.23956 19.3292 5.51002L19.3291 5.50962C19.1916 4.78016 18.4879 4.2998 17.7572 4.43743L18.2564 7.08075ZM18.2564 7.08075C17.5271 7.21866 16.8238 6.73891 16.6861 6.00889L16.686 6.00886M18.2564 7.08075L16.686 6.00886M16.686 6.00886C16.5482 5.27858 17.0278 4.57543 17.7571 4.43745L16.686 6.00886Z" stroke="#4F5CD3"/>
<path d="M13.2735 22.0272V22.5272H13.7735H18.34V23.4999H1.64966V22.8298V22.0272V20.5543H13.2735V22.0272Z" stroke="#4F5CD3"/>
</g>
<defs>
<clipPath id="clip0">
<rect width="24" height="24" fill="white"/>
</clipPath>
</defs>
</svg>
