<svg width="24" height="24" viewBox="0 0 24 24" fill="none" xmlns="http://www.w3.org/2000/svg">
<path d="M18.75 9.75C21.2353 9.75 23.25 7.73528 23.25 5.25C23.25 2.76472 21.2353 0.75 18.75 0.75C16.2647 0.75 14.25 2.76472 14.25 5.25C14.25 7.73528 16.2647 9.75 18.75 9.75Z" fill="#669E54"/>
<path d="M14.25 5.25C14.25 6.37838 14.6685 7.407 15.3544 8.19712C15.6071 8.22825 15.8629 8.25 16.125 8.25C19.2315 8.25 21.75 5.9835 21.75 3.1875C21.75 2.66737 21.6622 2.166 21.5006 1.69388C20.7394 1.10438 19.7873 0.75 18.75 0.75C16.2649 0.75 14.25 2.76487 14.25 5.25Z" fill="#85B176"/>
<path d="M13.5 17.25H18.75V13.875H4.125C2.26087 13.875 0.75 15.3859 0.75 17.25V23.25H13.5V17.25Z" fill="#C7E2FB"/>
<path d="M4.125 13.875C2.26087 13.875 0.75 15.3859 0.75 17.25V21.6499C1.30275 21.7136 1.86525 21.75 2.4375 21.75C8.175 21.75 13.0376 18.4466 14.7315 13.875H4.125Z" fill="#EBF7FE"/>
<path d="M8.25 16.125L6.375 13.875H4.875L6 17.25L8.25 16.125Z" fill="#4472B0"/>
<path d="M8.25 16.125L10.125 13.875H11.625L10.5 17.25L8.25 16.125Z" fill="#4472B0"/>
<path d="M8.24995 16.125L7.19995 16.65L7.87495 18H8.62495L9.29995 16.65L8.24995 16.125Z" fill="#2D4D81"/>
<path d="M9.375 23.25L8.625 18H7.875L7.125 23.25H9.375Z" fill="#4472B0"/>
<path d="M11.625 7.5V9.75C11.625 11.6141 10.1141 13.125 8.25 13.125C6.38587 13.125 4.875 11.6141 4.875 9.75V7.5H7.125C7.83337 7.5 8.50012 7.16663 8.925 6.6L9.375 6L9.825 6.6C10.2499 7.16663 10.9166 7.5 11.625 7.5Z" fill="#EFBE9C"/>
<path d="M4.875 9.75V7.875H4.5C3.87862 7.875 3.375 8.37863 3.375 9C3.375 9.62137 3.87862 10.125 4.5 10.125H4.89712C4.88325 10.0016 4.875 9.87675 4.875 9.75Z" fill="#EFBE9C"/>
<path d="M8.25 2.25C5.76487 2.25 3.75 4.26487 3.75 6.75V8.16712C3.9495 7.9875 4.2105 7.875 4.5 7.875H4.875V7.5H7.125C7.83337 7.5 8.50012 7.16663 8.925 6.6L9.375 6L9.825 6.6C10.2499 7.16663 10.9166 7.5 11.625 7.5V7.875H12C12.2895 7.875 12.5505 7.9875 12.75 8.16712V6.75C12.75 4.26487 10.7351 2.25 8.25 2.25Z" fill="#976949"/>
<path d="M11.9999 7.875H11.6249V9.75C11.6249 9.87675 11.6167 10.0016 11.6028 10.125H11.9999C12.6213 10.125 13.1249 9.62137 13.1249 9C13.1249 8.37863 12.6213 7.875 11.9999 7.875Z" fill="#EFBE9C"/>
<path d="M8.25 13.125C7.55588 13.125 6.91125 12.915 6.375 12.5557V13.875L8.25 16.125L10.125 13.875V12.5557C9.58875 12.915 8.94412 13.125 8.25 13.125Z" fill="#EFBE9C"/>
<path d="M18.75 17.25V13.5C18.75 13.0856 19.0856 12.75 19.5 12.75C19.9144 12.75 20.25 13.0856 20.25 13.5V14.625H20.8125C21.5374 14.625 22.125 15.2126 22.125 15.9375C22.125 16.6624 21.5374 17.25 20.8125 17.25H18.75Z" fill="#EFBE9C"/>
<path d="M20.8125 14.25H20.625V13.5C20.625 12.8798 20.1203 12.375 19.5 12.375C18.8797 12.375 18.375 12.8798 18.375 13.5H10.5V12.75H10.4903C11.2133 12.2089 11.7375 11.4161 11.9242 10.5H12C12.8273 10.5 13.5 9.82725 13.5 9C13.5 8.62275 13.3556 8.28188 13.125 8.01825V6.75C13.125 4.062 10.938 1.875 8.25 1.875C5.562 1.875 3.375 4.062 3.375 6.75V8.01825C3.14438 8.28188 3 8.62275 3 9C3 9.82725 3.67275 10.5 4.5 10.5H4.57575C4.7625 11.4161 5.28675 12.2089 6.00975 12.75H6V13.5H4.125C2.05725 13.5 0.375 15.1823 0.375 17.25V23.25C0.375 23.4574 0.542625 23.625 0.75 23.625H13.5C13.7074 23.625 13.875 23.4574 13.875 23.25V17.625H18.75H20.8125C21.7429 17.625 22.5 16.8679 22.5 15.9375C22.5 15.0071 21.7429 14.25 20.8125 14.25ZM6.19913 14.25L7.65863 16.0012L6.219 16.7209L5.39512 14.25H6.19913ZM8.2005 18.375H8.29987L8.94263 22.875H7.55775L8.2005 18.375ZM8.39325 17.625H8.10675L7.70325 16.8176L8.25 16.5443L8.79675 16.8176L8.39325 17.625ZM8.84138 16.0012L10.3009 14.25H11.1049L10.281 16.7213L8.84138 16.0012ZM12 9.75V8.25C12.4136 8.25 12.75 8.58637 12.75 9C12.75 9.41363 12.4136 9.75 12 9.75ZM3.75 9C3.75 8.58637 4.08637 8.25 4.5 8.25V9.75C4.08637 9.75 3.75 9.41363 3.75 9ZM4.5 7.5C4.36987 7.5 4.24575 7.52175 4.125 7.55325V6.75C4.125 4.47563 5.97563 2.625 8.25 2.625C10.5244 2.625 12.375 4.47563 12.375 6.75V7.55325C12.2542 7.52175 12.1301 7.5 12 7.5C12 7.29262 11.8324 7.125 11.625 7.125C11.0381 7.125 10.4771 6.8445 10.125 6.37463L9.675 5.77463C9.53362 5.58637 9.21638 5.58637 9.075 5.77463L8.625 6.375C8.27287 6.8445 7.71187 7.125 7.125 7.125H4.875C4.66762 7.125 4.5 7.29262 4.5 7.5ZM5.25 9.75V7.875H7.125C7.94662 7.875 8.73188 7.48238 9.225 6.825L9.375 6.62475L9.525 6.82463C9.94238 7.38112 10.5686 7.74825 11.25 7.84762V9.75C11.25 11.4041 9.90413 12.75 8.25 12.75C6.59588 12.75 5.25 11.4041 5.25 9.75ZM8.25 13.5C8.78325 13.5 9.29025 13.3864 9.75 13.1846V13.7393L8.25 15.5392L6.75 13.7393V13.1846C7.20975 13.3864 7.71675 13.5 8.25 13.5ZM1.125 17.25C1.125 15.5959 2.47088 14.25 4.125 14.25H4.605L5.6445 17.3685C5.67863 17.4713 5.75625 17.5545 5.85637 17.5961C5.9025 17.6156 5.95125 17.625 6 17.625C6.05737 17.625 6.11513 17.6119 6.16763 17.5856L7.032 17.1532L7.48688 18.063L6.7995 22.875H3.375V17.625H2.625V22.875H1.125V17.25ZM18.375 16.875H13.875V15.75H13.125V22.875H9.7005L9.01312 18.063L9.468 17.1532L10.3324 17.5856C10.3849 17.6119 10.4426 17.625 10.5 17.625C10.5487 17.625 10.5975 17.6156 10.6436 17.5965C10.7441 17.5549 10.8217 17.4716 10.8555 17.3689L11.895 14.25H18.375V14.625V16.875ZM20.8125 16.875H19.125V14.625V13.875V13.5C19.125 13.293 19.293 13.125 19.5 13.125C19.707 13.125 19.875 13.293 19.875 13.5V14.625C19.875 14.8324 20.0426 15 20.25 15H20.8125C21.3296 15 21.75 15.4204 21.75 15.9375C21.75 16.4546 21.3296 16.875 20.8125 16.875Z" fill="black"/>
<path d="M18.75 10.125C21.438 10.125 23.625 7.938 23.625 5.25C23.625 2.562 21.438 0.375 18.75 0.375C16.062 0.375 13.875 2.562 13.875 5.25C13.875 7.938 16.062 10.125 18.75 10.125ZM18.75 1.125C21.0244 1.125 22.875 2.97563 22.875 5.25C22.875 7.52437 21.0244 9.375 18.75 9.375C16.4756 9.375 14.625 7.52437 14.625 5.25C14.625 2.97563 16.4756 1.125 18.75 1.125Z" fill="black"/>
<path d="M18 7.125C18.096 7.125 18.192 7.08825 18.2651 7.01513L21.2651 4.01513L20.7349 3.48488L18 6.21975L16.7651 4.98488L16.2349 5.51513L17.7349 7.01513C17.808 7.08825 17.904 7.125 18 7.125Z" fill="black"/>
</svg>
