<svg width="80" height="80" xmlns="http://www.w3.org/2000/svg">

 <g>
  <title>background</title>
  <rect fill="none" id="canvas_background" height="602" width="802" y="-1" x="-1"/>
 </g>
 <g>
  <title>Layer 1</title>
  <ellipse ry="36" rx="36" id="svg_3" cy="41" cx="39.5" fill-opacity="null" stroke-opacity="null" stroke-width="0" stroke="#000" fill="#fff"/>
  <g id="svg_9">
   <path id="svg_8" fill="#1B1F6B" d="m33.60569,55.07174c-0.00579,0 -0.01163,0 -0.0174,0c-2.13834,-0.01178 -3.87815,-1.77791 -3.87815,-3.93711l0,-20.62804c0,-1.42803 0.74429,-2.69652 1.99099,-3.39295c1.2467,-0.69653 2.71698,-0.6654 3.93307,0.08321l16.80873,10.36127c1.16011,0.71415 1.85133,1.95435 1.8486,3.31717c-0.0029,1.36294 -0.69907,2.6003 -1.8626,3.3101l-12.15142,7.44017c-0.52277,0.32 -1.20591,0.15573 -1.52591,-0.36712c-0.32005,-0.52268 -0.15575,-1.20571 0.36697,-1.52587l12.15297,-7.44102c0.508,-0.30994 0.79914,-0.82743 0.8005,-1.42074c0.0012,-0.59326 -0.28789,-1.11193 -0.79316,-1.42303l-16.80887,-10.3612c-0.52104,-0.32078 -1.15159,-0.33412 -1.68638,-0.03535c-0.53472,0.29875 -0.854,0.84276 -0.854,1.45537l0,20.62804c0,1.02197 0.86385,1.71319 1.67066,1.71746c0.26319,0.00017 0.5603,-0.09579 0.8645,-0.28141c0.52311,-0.31914 1.20608,-0.15385 1.52531,0.36934c0.31921,0.5232 0.1538,1.20605 -0.36936,1.52536c-0.65046,0.39684 -1.34682,0.60635 -2.01505,0.60635z"/>
  </g>
 </g>
</svg>