<svg width="24" height="24" viewBox="0 0 24 24" fill="none" xmlns="http://www.w3.org/2000/svg">
<path d="M9.51233 20.7513C9.42517 20.8385 9.375 20.9595 9.375 21.0828C9.375 21.2065 9.42517 21.327 9.51233 21.4142C9.59949 21.5019 9.72052 21.5515 9.84375 21.5515C9.96698 21.5515 10.088 21.5019 10.1752 21.4142C10.2623 21.327 10.3125 21.2065 10.3125 21.0828C10.3125 20.9595 10.2623 20.8385 10.1752 20.7513C10.088 20.6642 9.96698 20.614 9.84375 20.614C9.72052 20.614 9.59949 20.6642 9.51233 20.7513Z" fill="#4F5CD3"/>
<path d="M11.8281 21.5517H16.875C17.3919 21.5517 17.8125 21.1311 17.8125 20.6142V9.74231C17.8125 9.2254 17.3919 8.80481 16.875 8.80481H2.8125C2.29559 8.80481 1.875 9.2254 1.875 9.74231V20.6142C1.875 21.1311 2.29559 21.5517 2.8125 21.5517H7.87701C8.13593 21.5517 8.34576 21.3419 8.34576 21.0829C8.34576 20.824 8.13593 20.6142 7.87701 20.6142H2.8125V9.74231H16.875V20.6142H11.8281C11.5692 20.6142 11.3593 20.824 11.3593 21.0829C11.3593 21.3419 11.5693 21.5517 11.8281 21.5517Z" fill="#4F5CD3"/>
<path d="M21.2578 6.36731H13.1627L18.7299 0.800171C18.9128 0.617249 18.9128 0.320435 18.7299 0.137329C18.5468 -0.0457764 18.2499 -0.0457764 18.0668 0.137329L12.0007 6.20343L8.68689 2.88959C8.50378 2.70648 8.20697 2.70648 8.02386 2.88959C7.84094 3.07269 7.84094 3.36951 8.02386 3.55261L10.8387 6.36731H6.1875C5.92859 6.36731 5.71875 6.57715 5.71875 6.83606C5.71875 7.09497 5.92859 7.30481 6.1875 7.30481H21.2578C22.253 7.30481 23.0625 8.11432 23.0625 9.1095V21.2501C23.0625 22.2453 22.253 23.0548 21.2578 23.0548H2.74219C1.74701 23.0548 0.9375 22.2453 0.9375 21.2501V9.1095C0.9375 8.11432 1.74701 7.30481 2.74219 7.30481C3.0011 7.30481 3.21094 7.09497 3.21094 6.83606C3.21094 6.57715 3.0011 6.36731 2.74219 6.36731C1.2301 6.36731 0 7.59741 0 9.1095V21.2501C0 22.7622 1.2301 23.9923 2.74219 23.9923H21.2578C22.7699 23.9923 24 22.7622 24 21.2501V9.1095C24 7.59741 22.7699 6.36731 21.2578 6.36731Z" fill="#4F5CD3"/>
<path d="M4.52344 7.30481C4.64667 7.30481 4.7677 7.25464 4.85486 7.16748C4.94202 7.08032 4.99219 6.95929 4.99219 6.83606C4.99219 6.71283 4.94202 6.5918 4.85486 6.50464C4.7677 6.41748 4.64667 6.36731 4.52344 6.36731C4.40021 6.36731 4.27917 6.41748 4.19202 6.50464C4.10486 6.5918 4.05469 6.71283 4.05469 6.83606C4.05469 6.95984 4.10486 7.08032 4.19202 7.16748C4.27917 7.25464 4.40021 7.30481 4.52344 7.30481Z" fill="#4F5CD3"/>
<path d="M20.4375 11.9923C21.3162 11.9923 22.0312 11.2775 22.0312 10.3986C22.0312 9.51984 21.3162 8.80481 20.4375 8.80481C19.5588 8.80481 18.8438 9.51984 18.8438 10.3986C18.8438 11.2775 19.5588 11.9923 20.4375 11.9923ZM20.4375 9.74231C20.7993 9.74231 21.0938 10.0367 21.0938 10.3986C21.0938 10.7604 20.7993 11.0548 20.4375 11.0548C20.0757 11.0548 19.7812 10.7604 19.7812 10.3986C19.7812 10.0367 20.0757 9.74231 20.4375 9.74231Z" fill="#4F5CD3"/>
<path d="M20.4375 16.257C21.3162 16.257 22.0312 15.5422 22.0312 14.6633C22.0312 13.7845 21.3162 13.0695 20.4375 13.0695C19.5588 13.0695 18.8438 13.7845 18.8438 14.6633C18.8438 15.5422 19.5588 16.257 20.4375 16.257ZM20.4375 14.007C20.7993 14.007 21.0938 14.3015 21.0938 14.6633C21.0938 15.0253 20.7993 15.3195 20.4375 15.3195C20.0757 15.3195 19.7812 15.0253 19.7812 14.6633C19.7812 14.3015 20.0757 14.007 20.4375 14.007Z" fill="#4F5CD3"/>
<path d="M19.3125 21.5517H21.7031C21.962 21.5517 22.1719 21.3419 22.1719 21.0829C22.1719 20.824 21.962 20.6142 21.7031 20.6142H19.3125C19.0536 20.6142 18.8438 20.824 18.8438 21.0829C18.8438 21.3419 19.0536 21.5517 19.3125 21.5517Z" fill="#4F5CD3"/>
<path d="M19.3125 19.6758H21.7031C21.962 19.6758 22.1719 19.4659 22.1719 19.207C22.1719 18.9481 21.962 18.7383 21.7031 18.7383H19.3125C19.0536 18.7383 18.8438 18.9481 18.8438 19.207C18.8438 19.4659 19.0536 19.6758 19.3125 19.6758Z" fill="#4F5CD3"/>
<path d="M19.3125 17.7997H21.7031C21.962 17.7997 22.1719 17.5898 22.1719 17.3309C22.1719 17.0722 21.962 16.8622 21.7031 16.8622H19.3125C19.0536 16.8622 18.8438 17.0722 18.8438 17.3309C18.8438 17.5898 19.0536 17.7997 19.3125 17.7997Z" fill="#4F5CD3"/>
<path d="M12.7375 15.1783C12.7375 14.7894 12.5364 14.4411 12.1997 14.2467L9.02173 12.412C8.685 12.2175 8.2829 12.2175 7.94598 12.412C7.60925 12.6064 7.4082 12.9547 7.4082 13.3436V17.013C7.4082 17.4019 7.60925 17.7502 7.94598 17.9447C8.11444 18.0419 8.29919 18.0904 8.48395 18.0904C8.66852 18.0904 8.85327 18.0419 9.02173 17.9447L12.1997 16.11C12.5364 15.9153 12.7375 15.567 12.7375 15.1783ZM11.731 15.2979L8.55298 17.1328C8.49292 17.1674 8.44055 17.1476 8.41473 17.1328C8.38892 17.1178 8.3457 17.0824 8.3457 17.013V13.3436C8.3457 13.274 8.38892 13.2387 8.41473 13.2238C8.43011 13.2151 8.45447 13.2044 8.48431 13.2044C8.505 13.2044 8.52844 13.2096 8.55298 13.2238L11.731 15.0586C11.791 15.0932 11.8 15.1485 11.8 15.1783C11.8 15.208 11.791 15.2633 11.731 15.2979Z" fill="#4F5CD3"/>
</svg>
