<svg width="24" height="24" viewBox="0 0 24 24" fill="none" xmlns="http://www.w3.org/2000/svg">
<g clip-path="url(#clip0)">
<path d="M18.6667 15.9999C16.4611 15.9999 14.6667 17.7943 14.6667 19.9999C14.6667 22.2055 16.4611 24 18.6667 24C20.8723 24 22.6667 22.2056 22.6667 20C22.6667 17.7944 20.8724 15.9999 18.6667 15.9999ZM18.6667 23.1111C16.9512 23.1111 15.5556 21.7155 15.5556 20C15.5556 18.2845 16.9512 16.8889 18.6667 16.8889C20.3822 16.8889 21.7778 18.2845 21.7778 20C21.7779 21.7155 20.3823 23.1111 18.6667 23.1111Z" fill="#441A36"/>
<path d="M20.4444 19.5555H19.1111V18.2222C19.1111 17.9768 18.9121 17.7778 18.6666 17.7778C18.4211 17.7778 18.2221 17.9768 18.2221 18.2222V19.5555H16.8888C16.6434 19.5555 16.4443 19.7545 16.4443 20C16.4443 20.2455 16.6433 20.4444 16.8888 20.4444H18.2221V21.7777C18.2221 22.0231 18.4211 22.2222 18.6666 22.2222C18.9121 22.2222 19.1111 22.0232 19.1111 21.7777V20.4444H20.4444C20.6898 20.4444 20.8888 20.2454 20.8888 20C20.8888 19.7545 20.6898 19.5555 20.4444 19.5555Z" fill="#441A36"/>
<path d="M19.8625 6.03797L13.6751 0.123141C13.5925 0.0441563 13.4824 0 13.3681 0H1.77767C1.53224 0 1.33325 0.198984 1.33325 0.444469V23.5556C1.33325 23.801 1.53224 24 1.77767 24H13.7777C14.0231 24 14.2221 23.8011 14.2221 23.5556C14.2221 23.3101 14.0232 23.1112 13.7777 23.1112H2.2221V0.888891H12.8888V6.66666C12.8888 6.91209 13.0878 7.11108 13.3333 7.11108H19.111V14.6666C19.111 14.9121 19.31 15.111 19.5554 15.111C19.8009 15.111 19.9999 14.9121 19.9999 14.6666V6.35925C19.9999 6.23794 19.9503 6.12187 19.8625 6.03797ZM13.7777 6.22223V1.45088L18.7689 6.22223H13.7777Z" fill="#441A36"/>
<path d="M14.4751 12.5234L8.69736 8.52346C8.56128 8.42939 8.38466 8.41865 8.23817 8.49524C8.09178 8.57198 8 8.72367 8 8.8889V16.8889C8 17.0542 8.09178 17.2058 8.23817 17.2826C8.30305 17.3165 8.37378 17.3333 8.44442 17.3333C8.53316 17.3333 8.6217 17.3068 8.69736 17.2544L14.4751 13.2544C14.5951 13.1714 14.6667 13.0348 14.6667 12.8889C14.6667 12.7431 14.5951 12.6065 14.4751 12.5234ZM8.88889 16.0407V9.7371L13.4414 12.8889L8.88889 16.0407Z" fill="#441A36"/>
</g>
<defs>
<clipPath id="clip0">
<rect width="24" height="24" fill="white"/>
</clipPath>
</defs>
</svg>
