<svg xmlns="http://www.w3.org/2000/svg" width="60" height="44" viewBox="0 0 60 44">
  <g id="cloud-storage-uploading-option" transform="translate(0 -73.091)">
    <path id="Path_1753" data-name="Path 1753" d="M57.39,97.637A11.828,11.828,0,0,0,50.717,93.4,7.987,7.987,0,0,0,44,81.091a7.638,7.638,0,0,0-5.187,1.938A16.017,16.017,0,0,0,24,73.091a15.416,15.416,0,0,0-11.312,4.688A15.412,15.412,0,0,0,8,89.091q0,.406.062,1.344A13.975,13.975,0,0,0,0,103.091a13.483,13.483,0,0,0,4.109,9.89,13.48,13.48,0,0,0,9.89,4.11H48A11.986,11.986,0,0,0,57.39,97.637ZM39.7,96.794a.963.963,0,0,1-.7.3H32v11a1.013,1.013,0,0,1-1,1H25a1.014,1.014,0,0,1-1-1v-11H17a.961.961,0,0,1-1-1,1.175,1.175,0,0,1,.312-.75L27.281,84.372a1.059,1.059,0,0,1,1.438,0l11,11a.972.972,0,0,1,.28.719A.961.961,0,0,1,39.7,96.794Z" transform="translate(0)" fill="#f26187"/>
  </g>
</svg>
